<?xml version="1.0" standalone="no"?><!DOCTYPE svg PUBLIC "-//W3C//DTD SVG 1.1//EN" "http://www.w3.org/Graphics/SVG/1.1/DTD/svg11.dtd"><svg t="1533171037559" class="icon" style="" viewBox="0 0 1024 1024" version="1.1" xmlns="http://www.w3.org/2000/svg" p-id="24790" xmlns:xlink="http://www.w3.org/1999/xlink" width="32" height="32"><defs><style type="text/css"></style></defs><path d="M513.205343 571.323435c36.110717 0 65.390265-29.264958 65.390265-65.376874s-29.27715-65.377074-65.390265-65.377074c-36.113115 0-65.392664 29.264958-65.392664 65.377074S477.092227 571.323435 513.205343 571.323435zM512.001159 76.893458c-240.304873 0-435.107597 194.803923-435.107597 435.107597 0 240.304873 194.803923 435.107597 435.107597 435.107597s435.107597-194.802724 435.107597-435.107597C947.108756 271.697381 752.303634 76.893458 512.001159 76.893458zM218.227338 326.413883l-7.361009 14.670453c-2.538479 5.057571-7.630826 8.199241-13.290389 8.199241-2.297642 0-4.60108-0.546629-6.661484-1.581128-3.546396-1.779793-6.189404-4.834722-7.439356-8.602567-1.251152-3.767845-0.95855-7.798113 0.822442-11.346907l7.362408-14.672852c2.538479-5.057571 7.630826-8.198042 13.290389-8.198042 2.296443 0 4.598682 0.546629 6.659085 1.579929 3.548594 1.780992 6.191802 4.83712 7.441754 8.604966C220.302131 318.836021 220.00953 322.865089 218.227338 326.413883zM257.980785 281.560894c-2.77312 3.808818-7.267273 6.093069-12.006859 6.093069-3.161057 0-6.183408-0.983733-8.741074-2.84667-6.62291-4.82273-8.090914-14.137015-3.269383-20.762323 1.908706-2.617825 47.818979-64.475086 148.415574-103.369915 1.719634-0.664749 3.522212-1.00312 5.358567-1.00312 6.096666 0 11.66609 3.81961 13.8636 9.505755 2.954997 7.64042-0.857419 16.263573-8.500237 19.220968C301.270834 223.903785 258.402099 280.987682 257.980785 281.560894zM590.192945 602.096171l-298.902344 131.807634 131.831818-298.862571 311.996666-144.942729L590.192945 602.096171z" p-id="24791" fill="#0c811a"></path></svg>