<?xml version="1.0" standalone="no"?><!DOCTYPE svg PUBLIC "-//W3C//DTD SVG 1.1//EN" "http://www.w3.org/Graphics/SVG/1.1/DTD/svg11.dtd"><svg t="1533169944407" class="icon" style="" viewBox="0 0 1024 1024" version="1.1" xmlns="http://www.w3.org/2000/svg" p-id="5152" xmlns:xlink="http://www.w3.org/1999/xlink" width="200" height="200"><defs><style type="text/css"></style></defs><path d="M511.8194 65.738272C264.397884 65.738272 62.848677 267.287478 62.848677 514.708995s201.549206 448.970723 448.970723 448.970723S960.790123 762.130511 960.790123 514.708995 759.602116 65.738272 511.8194 65.738272z m0 861.821516c-227.555556 0-412.850794-185.295238-412.850793-412.850793S284.263845 101.858201 511.8194 101.858201 924.670194 287.153439 924.670194 514.708995s-184.934039 412.850794-412.850794 412.850793z" fill="#515151" p-id="5153"></path><path d="M261.869489 764.658907l300.879012-199.382011L762.130511 264.759083l-300.879012 199.38201-199.38201 300.517814z m218.886772-281.013052c17.337566-17.337566 44.788713-17.337566 62.126279 0 17.337566 16.976367 17.337566 44.788713 0 62.126279-17.337566 17.337566-44.788713 17.337566-62.126279 0-16.976367-17.337566-16.976367-45.149912 0-62.126279z" fill="#515151" p-id="5154"></path></svg>