<?xml version="1.0" standalone="no"?><!DOCTYPE svg PUBLIC "-//W3C//DTD SVG 1.1//EN" "http://www.w3.org/Graphics/SVG/1.1/DTD/svg11.dtd"><svg t="1533189504879" class="icon" style="" viewBox="0 0 1024 1024" version="1.1" xmlns="http://www.w3.org/2000/svg" p-id="2433" xmlns:xlink="http://www.w3.org/1999/xlink" width="32" height="32"><defs><style type="text/css"></style></defs><path d="M428.8 710.4c-6.4 0-19.2-6.4-25.6-6.4L236.8 537.6c-12.8-12.8-12.8-32 0-44.8s32-12.8 44.8 0l147.2 147.2L742.4 320c12.8-12.8 32-12.8 44.8 0s12.8 32 0 44.8L448 704C448 710.4 435.2 710.4 428.8 710.4z" p-id="2434" fill="#ffffff"></path><path d="M915.2 1024l-262.4 0c-19.2 0-32-12.8-32-32S633.6 960 646.4 960l262.4 0c25.6 0 44.8-19.2 44.8-44.8l0-262.4c0-19.2 12.8-32 32-32S1024 633.6 1024 646.4l0 262.4C1024 972.8 972.8 1024 915.2 1024z" p-id="2435" fill="#ffffff"></path><path d="M992 409.6c-19.2 0-32-12.8-32-32L960 108.8C960 83.2 940.8 64 915.2 64l-262.4 0C633.6 64 614.4 51.2 614.4 32S633.6 0 646.4 0l262.4 0C972.8 0 1024 51.2 1024 108.8l0 262.4C1024 390.4 1011.2 409.6 992 409.6z" p-id="2436" fill="#ffffff"></path><path d="M32 409.6C12.8 409.6 0 390.4 0 377.6L0 108.8C0 51.2 51.2 0 108.8 0l262.4 0c19.2 0 32 12.8 32 32S390.4 64 377.6 64L108.8 64C83.2 64 64 83.2 64 108.8l0 262.4C64 390.4 51.2 409.6 32 409.6z" p-id="2437" fill="#ffffff"></path><path d="M377.6 1024 108.8 1024C51.2 1024 0 972.8 0 915.2l0-262.4c0-19.2 12.8-32 32-32S64 633.6 64 646.4l0 262.4C64 940.8 83.2 960 108.8 960l262.4 0c19.2 0 32 12.8 32 32S390.4 1024 377.6 1024z" p-id="2438" fill="#ffffff"></path></svg>