<?xml version="1.0" standalone="no"?><!DOCTYPE svg PUBLIC "-//W3C//DTD SVG 1.1//EN" "http://www.w3.org/Graphics/SVG/1.1/DTD/svg11.dtd"><svg t="1533194654966" class="icon" style="" viewBox="0 0 1024 1024" version="1.1" xmlns="http://www.w3.org/2000/svg" p-id="7244" xmlns:xlink="http://www.w3.org/1999/xlink" width="16" height="16"><defs><style type="text/css"></style></defs><path d="M988.16 889.856l-256-256c44.544-64 70.656-141.312 70.656-224.768C802.816 191.488 626.688 15.36 409.088 15.36S15.36 191.488 15.36 409.088s176.128 393.728 393.728 393.728c83.456 0 161.28-26.112 224.768-70.656l256 256c27.136 27.136 71.168 27.136 98.304 0s27.136-71.168 0-98.304zM108.032 409.088c0-165.888 135.168-301.056 301.056-301.056s301.056 135.168 301.056 301.056-135.168 301.056-301.056 301.056-301.056-135.168-301.056-301.056z" p-id="7245" fill="#8a8a8a"></path></svg>