<?xml version="1.0" standalone="no"?><!DOCTYPE svg PUBLIC "-//W3C//DTD SVG 1.1//EN" "http://www.w3.org/Graphics/SVG/1.1/DTD/svg11.dtd"><svg t="1533263106648" class="icon" style="" viewBox="0 0 1024 1024" version="1.1" xmlns="http://www.w3.org/2000/svg" p-id="2703" xmlns:xlink="http://www.w3.org/1999/xlink" width="32" height="32"><defs><style type="text/css"></style></defs><path d="M873.86565 150.14294A508.144797 508.144797 0 0 0 769.541692 69.609972l-51.737979 505.835798L986.119605 318.908872a505.065798 505.065798 0 0 0-112.253955-168.765932zM710.796715 40.275984A510.069796 510.069796 0 0 0 381.349847 17.179993l321.054872 394.273842zM318.909872 37.889985A511.224795 511.224795 0 0 0 69.532972 254.466898l505.912798 51.738979zM40.275984 313.365875A510.069796 510.069796 0 0 0 17.179993 642.813743L411.375835 321.679871z m109.866956 560.499775a512.379795 512.379795 0 0 0 104.400958 80.455968l51.815979-505.835798L37.966985 705.099718a505.373798 505.373798 0 0 0 112.175955 168.765932z m163.299935 109.789956A508.144797 508.144797 0 0 0 512.004795 1023.99959a513.226795 513.226795 0 0 0 130.885948-17.015993L321.679871 612.709755z m391.809843 2.309999a506.219797 506.219797 0 0 0 168.612932-112.099955 510.223796 510.223796 0 0 0 80.455968-104.400958L448.63982 717.880713z m301.730879-604.846758L612.709755 702.404719l371.099851 8.314996a510.762795 510.762795 0 0 0 23.173991-329.600868z" fill="#ECC804" p-id="2704"></path><path d="M769.541692 69.609972a510.531796 510.531796 0 0 1 216.577913 249.2999L717.803713 575.36777l51.737979-505.835798z m0 0" fill="#FE5D62" p-id="2705"></path><path d="M381.118847 17.101993a510.069796 510.069796 0 0 1 329.446868 23.096991l-8.391996 371.099851L381.119847 17.101993z m0 0" fill="#ECC804" p-id="2706"></path><path d="M69.532972 254.466898A511.224795 511.224795 0 0 1 318.909872 37.889985l256.536898 268.315892-505.912798-51.738979z m0 0" fill="#F5DE36" p-id="2707"></path><path d="M17.101993 642.889743a510.069796 510.069796 0 0 1 23.096991-329.446868l371.099851 8.314996L17.101993 642.890743z m0 0" fill="#AEF348" p-id="2708"></path><path d="M254.466898 955.322617a512.379795 512.379795 0 0 1-104.323958-80.455967 505.373798 505.373798 0 0 1-112.175955-168.919933l268.315892-256.459897-51.815979 505.835797z m0 0" fill="#35F432" p-id="2709"></path><path d="M512.004795 1023.99959a508.144797 508.144797 0 0 1-198.71592-40.189984l8.391996-371.099851 321.209872 394.273842A513.226795 513.226795 0 0 1 512.004795 1023.99959z m0 0" fill="#6AD4FE" p-id="2710"></path><path d="M448.63982 717.879713l505.912798 51.738979a510.223796 510.223796 0 0 1-80.686968 104.246958 506.219797 506.219797 0 0 1-168.919932 112.176955L448.63982 717.879713z m0 0" fill="#24BBF4" p-id="2711"></path><path d="M612.709755 702.404719l394.273842-321.285872a510.762795 510.762795 0 0 1-23.096991 329.446868l-371.099851-8.314996z m0 0" fill="#615DFC" p-id="2712"></path></svg>