<?xml version="1.0" standalone="no"?><!DOCTYPE svg PUBLIC "-//W3C//DTD SVG 1.1//EN" "http://www.w3.org/Graphics/SVG/1.1/DTD/svg11.dtd"><svg t="1533263336865" class="icon" style="" viewBox="0 0 1038 1024" version="1.1" xmlns="http://www.w3.org/2000/svg" p-id="5862" xmlns:xlink="http://www.w3.org/1999/xlink" width="32.4375" height="32"><defs><style type="text/css"></style></defs><path d="M995.317936 244.552334l-217.883047-125.798526c-12.076658-7.044717-27.675676-3.019165-34.217199 9.057494-7.044717 12.076658-3.019165 27.675676 9.057494 34.217199l21.637347 12.579853-110.702703 192.220147c-91.078133-35.726781-197.252088 0-247.571499 86.549386l-1.006388 1.509582-49.313022 85.542998-100.638821 174.10516-100.63882 174.105159 84.536609 48.809828h514.767568l72.45995-125.295331 49.313023-85.542998 1.006388-1.509582c50.31941-87.05258 27.675676-196.748894-48.809828-257.635381l110.702702-192.220148 21.637347 12.579853c12.076658 7.044717 27.675676 3.019165 34.217199-9.057494 7.547912-12.076658 3.522359-27.675676-8.5543-34.217199zM1038.592629 75.479115L908.265356 0 855.429975 143.913514l84.033416 48.306633z" fill="#0071BC" p-id="5863"></path><path d="M503.194103 889.14398c-138.881572-21.637346-264.680098-21.637346-355.758231-5.031941-91.078133 14.592629-147.435872 45.287469-147.435872 43.777887 0 2.012776 56.35774-10.063882 147.435872-5.031941 91.078133 3.019165 216.876658 22.140541 355.758231 43.777887 138.881572 21.637346 264.680098 21.637346 355.758231 5.031941 91.078133-14.592629 147.435872-45.790663 147.435872-43.777887 0-2.012776-56.35774 10.063882-147.435872 5.031941-91.078133-3.019165-216.876658-22.140541-355.758231-43.777887z" fill="#FFFFFF" p-id="5864"></path><path d="M503.194103 929.399509c-138.881572-21.637346-264.680098-21.637346-355.758231-5.031941-91.078133 14.592629-147.435872 45.287469-147.435872 43.777887 0 2.012776 56.35774-10.063882 147.435872-5.031941 91.078133 3.019165 216.876658 22.140541 355.758231 43.777886 138.881572 21.637346 264.680098 21.637346 355.758231 5.031942 91.078133-14.592629 147.435872-45.790663 147.435872-43.777887 0-2.012776-56.35774 10.063882-147.435872 5.031941-91.078133-3.019165-216.876658-22.140541-355.758231-43.777887z" fill="#0071BB" p-id="5865"></path></svg>