<?xml version="1.0" standalone="no"?><!DOCTYPE svg PUBLIC "-//W3C//DTD SVG 1.1//EN" "http://www.w3.org/Graphics/SVG/1.1/DTD/svg11.dtd"><svg t="1533216063488" class="icon" style="" viewBox="0 0 1024 1024" version="1.1" xmlns="http://www.w3.org/2000/svg" p-id="9339" xmlns:xlink="http://www.w3.org/1999/xlink" width="32" height="32"><defs><style type="text/css"></style></defs><path d="M960 538.9V177c0-62.4-50.6-113-113-113H356.3c-62.4 0-113 50.6-113 113v133.5h67.2V177c0-25.3 20.5-45.8 45.8-45.8H847c25.3 0 45.8 20.5 45.8 45.8v361.9c0 18.6 15 33.6 33.6 33.6s33.6-15 33.6-33.6z" fill="#1296db" p-id="9340"></path><path d="M166.8 798.9l115.4-115.5 63.1 63.1L484.7 607l193.2 193.3z" fill="#1296db" p-id="9341"></path><path d="M290.4 538.9m-47.1 0a47.1 47.1 0 1 0 94.2 0 47.1 47.1 0 1 0-94.2 0Z" fill="#1296db" p-id="9342"></path><path d="M920.4 797.1c-25.1 30.8-63 50.9-105.8 50.9-42.9 0-80.7-20.1-105.8-50.9-0.5 0.3-1.1 0.7-1.6 1-72.2 48-34.3 161.9 52.4 161.9h110.1c86.7 0 124.6-113.9 52.4-161.9l-1.7-1z" fill="#1296db" p-id="9343"></path><path d="M814.5 710.9m-103.9 0a103.9 103.9 0 1 0 207.8 0 103.9 103.9 0 1 0-207.8 0Z" fill="#1296db" p-id="9344"></path><path d="M568.1 892.8H177c-25.3 0-45.8-20.5-45.8-45.8V356.3c0-25.3 20.5-45.8 45.8-45.8h490.6c25.3 0 45.8 20.5 45.8 45.8v181.9c0 18.6 15 33.6 33.6 33.6s33.6-15 33.6-33.6V356.3c0-62.4-50.6-113-113-113H177c-62.4 0-113 50.6-113 113V847c0 62.4 50.6 113 113 113h391c18.6 0 33.6-15 33.6-33.6 0.1-18.6-15-33.6-33.5-33.6z" fill="#1296db" p-id="9345"></path></svg>