<?xml version="1.0" standalone="no"?><!DOCTYPE svg PUBLIC "-//W3C//DTD SVG 1.1//EN" "http://www.w3.org/Graphics/SVG/1.1/DTD/svg11.dtd"><svg t="1533293855298" class="icon" style="" viewBox="0 0 1024 1024" version="1.1" xmlns="http://www.w3.org/2000/svg" p-id="2260" xmlns:xlink="http://www.w3.org/1999/xlink" width="32" height="32"><defs><style type="text/css"></style></defs><path d="M243.7868 187.0694H100.38272v78.409728l143.404-48.5786V187.06944000000001zM511.4378 364.6065c-97.1418 0-175.916 78.7364-175.916 175.7829 0 97.1059 78.7743 175.8433 175.916 175.8433 97.0824 0 175.8085-78.7374 175.8085-175.8433C687.2453 443.3428 608.5192 364.6065 511.4378 364.6065zM959.4634 237.8148H654.8664319999999v-74.87488H370.7842560000001v74.87488c0 0-30.5367-0.4997-56.4449 0-25.9092 0.4393-55.1188 10.1468-55.1188 10.1468L63.1439 311.2786v549.248c0 0 895.2586-0.0717 896.3195 0C960.5847 860.6362 959.4634 237.8148 959.4634 237.8148zM511.4378 797.271c-141.9807 0-257.0045-115.0116-257.0045-256.8571 0-141.8711 115.0239-256.9083 257.0045-256.9083 141.8834 0 256.9441 115.0372 256.9441 256.9083C768.382 682.2595 653.3202 797.271 511.4378 797.271z" p-id="2261" fill="#ffffff"></path></svg>