<?xml version="1.0" standalone="no"?><!DOCTYPE svg PUBLIC "-//W3C//DTD SVG 1.1//EN" "http://www.w3.org/Graphics/SVG/1.1/DTD/svg11.dtd"><svg t="1533282290150" class="icon" style="" viewBox="0 0 1024 1024" version="1.1" xmlns="http://www.w3.org/2000/svg" p-id="2574" xmlns:xlink="http://www.w3.org/1999/xlink" width="32" height="32"><defs><style type="text/css"></style></defs><path d="M304.504 463.265c0-66.286-53.706-120.039-120.049-120.039-66.244 0-120.048 53.752-120.048 120.039 0 66.288 53.804 120.04 120.048 120.04 66.342 0 120.049-53.752 120.049-120.04z m327.963 0c0-66.286-53.706-120.039-120.048-120.039-66.245 0-120.05 53.752-120.05 120.039 0 66.288 53.805 120.04 120.05 120.04 66.342 0 120.048-53.752 120.048-120.04z m327.962 0c0-66.286-53.707-120.039-120.049-120.039-66.244 0-120.048 53.752-120.048 120.039 0 66.288 53.804 120.04 120.048 120.04 66.342 0 120.05-53.752 120.05-120.04z" p-id="2575" fill="#ffffff"></path></svg>