<?xml version="1.0" standalone="no"?><!DOCTYPE svg PUBLIC "-//W3C//DTD SVG 1.1//EN" "http://www.w3.org/Graphics/SVG/1.1/DTD/svg11.dtd"><svg t="1533263295509" class="icon" style="" viewBox="0 0 1024 1024" version="1.1" xmlns="http://www.w3.org/2000/svg" p-id="4944" xmlns:xlink="http://www.w3.org/1999/xlink" width="32" height="32"><defs><style type="text/css"></style></defs><path d="M328.47357687 232.96803781L450.86968156 91.87723156c22.01368781-25.332675 61.5028575-24.92626781 82.90693594 0.94828219l109.32336094 131.94665906 192.77217281 40.77612282c33.93494719 7.17984937 52.56191344 43.8241725 38.33768438 75.45614906l-72.74677219 161.88527531 73.76278875 182.88294656c13.41141563 33.2576025-8.46680344 70.10512969-44.02737656 74.30466375l-194.19459469 22.96197L535.26677469 927.78776563c-21.06540563 29.87088094-65.02504781 30.8868975-87.44514188 2.03203218L332.53764219 781.14273594l-180.85091344-21.33634313c-34.68002531-4.06406531-56.55824438-39.35370094-44.84019-72.27263156l61.23192-171.842235-62.85754594-176.38044188c-11.17618031-31.42877344 8.26359938-65.43145406 41.04706125-71.66302125l182.20560281-34.68002531z" fill="#ffcd00" p-id="4945"></path><path d="M489.952445 298.8736325l145.29034031-50.12347406c5.0123475-1.76109469 10.36336688 1.42242281 11.24391469 6.70570875L670.53242094 397.08854844l120.49954125 108.30734531c4.06406531 3.65765906 3.72539344 10.16016375-0.74507906 13.34368125L669.24546688 605.98151375 646.35123125 768.34092969c-0.81281344 5.62195688-6.70570781 8.94094406-11.92125844 6.70570875l-149.62534406-64.27996969-137.83955438 63.80582812c-5.21555062 2.43843937-11.31164906-0.88054781-12.12446156-6.63797343l-21.60728156-157.82120907-122.32837125-91.23827062c-4.40273719-3.31898719-4.60594125-9.82149187-0.40640625-13.41141563l116.43547594-99.09546375 27.70337906-151.11550125c0.94828219-5.14781625 6.29930156-8.26359938 11.24391469-6.57023906L489.952445 298.8736325z" fill="#FFFFFF" p-id="4946"></path></svg>