<?xml version="1.0" standalone="no"?><!DOCTYPE svg PUBLIC "-//W3C//DTD SVG 1.1//EN" "http://www.w3.org/Graphics/SVG/1.1/DTD/svg11.dtd"><svg t="1533189341484" class="icon" style="" viewBox="0 0 1024 1024" version="1.1" xmlns="http://www.w3.org/2000/svg" p-id="10804" xmlns:xlink="http://www.w3.org/1999/xlink" width="32" height="32"><defs><style type="text/css"></style></defs><path d="M930.096 830.64c22.736 0 37.904 15.152 37.904 37.888 0 22.72-15.168 37.872-37.904 37.872h-75.792v79.568c0 22.72-15.168 37.872-37.92 37.872-22.72 0-37.888-15.152-37.888-37.872V906.4h-75.808c-22.736 0-37.904-15.152-37.904-37.872s15.168-37.888 37.92-37.888h75.792v-71.968c0-22.72 15.152-37.888 37.904-37.888 22.736 0 37.904 15.152 37.904 37.888v71.968h75.792zM740.592 985.968c0 11.36 7.584 26.512 11.36 37.872H96.288c-11.36 0-22.736-7.568-30.32-15.152-7.584-7.568-11.36-18.944-7.584-30.304C88.704 819.28 198.624 694.272 342.64 637.44c-102.352-56.8-174.352-166.672-174.352-295.472 0-189.408 151.6-340.944 341.12-340.944 189.488 0 341.104 151.52 341.104 340.944 0 125.008-72.016 234.88-174.352 295.472 26.528 11.36 75.808 30.304 102.336 56.832-22.736 11.36-37.904 34.08-37.904 64.4v34.08h-37.904c-41.696 0-75.792 34.096-75.792 75.776 0 41.664 34.096 75.76 75.792 75.76h37.904v41.68z" p-id="10805" fill="#ffffff"></path></svg>