<?xml version="1.0" standalone="no"?><!DOCTYPE svg PUBLIC "-//W3C//DTD SVG 1.1//EN" "http://www.w3.org/Graphics/SVG/1.1/DTD/svg11.dtd"><svg t="1533189817366" class="icon" style="" viewBox="0 0 1024 1024" version="1.1" xmlns="http://www.w3.org/2000/svg" p-id="3462" xmlns:xlink="http://www.w3.org/1999/xlink" width="32" height="32"><defs><style type="text/css"></style></defs><path d="M240.3 393.34h25.94v236.83H240.3zM305.02 393.34h25.95v236.83h-25.95zM369.74 393.34h25.94v236.83h-25.94zM434.47 393.34h25.94v236.83h-25.94zM499.19 393.34h25.95v236.83h-25.95zM563.92 393.34h25.94v236.83h-25.94zM628.64 393.34h25.94v236.83h-25.94zM693.23 393.34h25.94v236.83h-25.94zM757.96 393.34h25.95v236.83h-25.95zM931.24 721.07a28.66 28.66 0 0 0-28.66 28.66V863.4a38.87 38.87 0 0 1-38.83 38.83H750.08a28.66 28.66 0 0 0 0 57.33h113.67a96.26 96.26 0 0 0 96.16-96.16V749.73a28.66 28.66 0 0 0-28.67-28.66zM863.75 63.95H750.08a28.66 28.66 0 0 0 0 57.33h113.67a38.87 38.87 0 0 1 38.83 38.83v113.66a28.66 28.66 0 1 0 57.33 0V160.1a96.26 96.26 0 0 0-96.16-96.15zM274.12 63.95H160.45a96.26 96.26 0 0 0-96.16 96.15v113.67a28.66 28.66 0 0 0 57.33 0V160.1a38.87 38.87 0 0 1 38.83-38.83h113.67a28.66 28.66 0 1 0 0-57.33zM274.12 902.23H160.45a38.87 38.87 0 0 1-38.83-38.83V749.73a28.66 28.66 0 0 0-57.33 0V863.4a96.26 96.26 0 0 0 96.16 96.16h113.67a28.66 28.66 0 1 0 0-57.33z" p-id="3463" fill="#ffffff"></path></svg>