<?xml version="1.0" standalone="no"?><!DOCTYPE svg PUBLIC "-//W3C//DTD SVG 1.1//EN" "http://www.w3.org/Graphics/SVG/1.1/DTD/svg11.dtd"><svg t="1533215718603" class="icon" style="" viewBox="0 0 1024 1024" version="1.1" xmlns="http://www.w3.org/2000/svg" p-id="7665" xmlns:xlink="http://www.w3.org/1999/xlink" width="32" height="32"><defs><style type="text/css"></style></defs><path d="M512 1024C229.218462 1024 0 794.781538 0 512S229.218462 0 512 0s512 229.218462 512 512-229.218462 512-512 512z m0-157.538462a315.076923 315.076923 0 0 0 315.076923-315.076923H196.923077a315.076923 315.076923 0 0 0 315.076923 315.076923zM354.461538 393.846154a78.769231 78.769231 0 1 0 0-157.538462 78.769231 78.769231 0 0 0 0 157.538462z m315.076924 0a78.769231 78.769231 0 1 0 0-157.538462 78.769231 78.769231 0 0 0 0 157.538462z" fill="#f4ea2a" p-id="7666"></path></svg>