<?xml version="1.0" standalone="no"?><!DOCTYPE svg PUBLIC "-//W3C//DTD SVG 1.1//EN" "http://www.w3.org/Graphics/SVG/1.1/DTD/svg11.dtd"><svg t="1533263352884" class="icon" style="" viewBox="0 0 1024 1024" version="1.1" xmlns="http://www.w3.org/2000/svg" p-id="6566" xmlns:xlink="http://www.w3.org/1999/xlink" width="32" height="32"><defs><style type="text/css"></style></defs><path d="M864.256 64H160.768c-50.176 0-90.624 40.448-90.624 90.624v703.488c0 50.176 40.448 90.624 90.624 90.624h703.488c50.176 0 90.624-40.448 90.624-90.624V154.624c0-50.176-40.96-90.624-90.624-90.624z m-80.384 251.392l-2.048 1.024v2.048c-19.456 133.12-135.168 233.472-269.312 233.472S262.144 451.584 243.2 318.464l-0.512-2.048-2.048-1.024c-13.312-7.68-21.504-21.504-21.504-35.84 0-23.552 18.944-42.496 42.496-42.496s42.496 18.944 42.496 42.496c0 12.288-5.632 23.552-15.872 32.256l-2.048 1.536 0.512 2.56c17.92 111.616 112.64 192.512 225.792 192.512s207.872-80.896 225.792-192.512l0.512-2.56-2.048-1.536c-10.24-8.704-15.872-19.968-15.872-32.256 0-23.552 18.944-42.496 42.496-42.496s42.496 18.944 42.496 42.496c-0.512 14.336-8.704 27.648-22.016 35.84z" p-id="6567" fill="#d81e06"></path></svg>