<?xml version="1.0" standalone="no"?><!DOCTYPE svg PUBLIC "-//W3C//DTD SVG 1.1//EN" "http://www.w3.org/Graphics/SVG/1.1/DTD/svg11.dtd"><svg t="1533215602257" class="icon" style="" viewBox="0 0 1024 1024" version="1.1" xmlns="http://www.w3.org/2000/svg" p-id="3888" xmlns:xlink="http://www.w3.org/1999/xlink" width="32" height="32"><defs><style type="text/css"></style></defs><path d="M939.1976300088891 879.6488692622222c0 12.945382968888888-2.5890770488888886 25.890765937777775-7.767230008888888 36.247071857777776-5.17815296 10.35630592-10.35630592 20.71261184-18.123535928888888 31.068917759999998-7.767230008888888 7.767230008888888-18.123535928888888 15.534458879999999-28.47984184888889 20.712612977777777-10.35630592 5.17815296-23.301688888888886 7.767230008888888-36.247071857777776 7.7672288711111115H172.83097258666663c-12.945382968888888 0-25.890765937777775-2.5890770488888886-36.247071857777776-7.7672288711111115-12.945382968888888-5.17815296-23.301688888888886-10.35630592-31.068917759999998-20.712612977777777-7.767230008888888-7.767230008888888-15.534458879999999-18.123535928888888-20.712612977777777-31.068917759999998-5.17815296-10.35630592-7.767230008888888-23.301688888888886-7.7672288711111115-36.247071857777776V364.4226366577778c0-25.890765937777775 10.35630592-49.19245482666667 28.47984184888889-67.31598961777779 18.123535928888888-18.123535928888888 41.42522481777778-28.47984184888889 67.31598961777779-28.47984184888889h678.3380548266667c25.890765937777775 0 49.19245482666667 10.35630592 67.31598961777779 28.47984184888889 18.123535928888888 18.123535928888888 28.47984184888889 41.42522481777778 28.47984184888889 67.31598961777779v139.81013333333334H706.18074112c-25.890765937777775 0-49.19245482666667 7.767230008888888-67.31599075555556 25.890765937777775-18.123535928888888 18.123535928888888-28.47984184888889 38.836147768888885-28.47984184888889 67.31598961777779 0 18.123535928888888 5.17815296 33.657994808888894 10.35630592 46.60337777777777s15.534458879999999 23.301688888888886 28.47984184888889 31.068918897777777c12.945382968888888 10.35630592 31.068918897777777 15.534458879999999 54.37060778666666 15.534458879999999H939.1976300088891v189.00258816z m-139.81013333333334-657.6254418488888H330.7646418488889c36.247071857777776-18.123535928888888 72.49414371555555-38.836147768888885 106.15213852444442-56.95968369777778l85.43952554666666-46.60337777777777c28.47984184888889-15.534458879999999 49.19245482666667-25.890765937777775 67.31599075555556-36.247071857777776 23.301688888888886-12.945382968888888 46.60337777777777-18.123535928888888 64.72691370666666-18.123535928888888s36.247071857777776 5.17815296 49.19245368888889 10.35630592c15.534458879999999 7.767230008888888 28.47984184888889 18.123535928888888 38.836147768888885 31.068918897777777l56.95968483555556 116.50844444444445z m-139.81013333333334 375.4160981333333c0-12.945382968888888 5.17815296-23.301688888888886 12.945381831111112-33.657994808888894 7.767230008888888-7.767230008888888 20.71261184-12.945382968888888 33.65799594666667-12.945382968888888s23.301688888888886 5.17815296 33.657994808888894 12.945382968888888c7.767230008888888 7.767230008888888 12.945382968888888 20.71261184 12.945382968888888 33.657994808888894s-5.17815296 23.301688888888886-12.945382968888888 33.65799594666667-20.71261184 12.945382968888888-33.657994808888894 12.945381831111112-23.301688888888886-5.17815296-33.65799594666667-12.945381831111112c-7.767230008888888-7.767230008888888-12.945382968888888-18.123535928888888-12.945381831111112-33.65799594666667z m0 0" fill="#1296db" p-id="3889"></path></svg>